<svg xmlns="http://www.w3.org/2000/svg">
<symbol id="envelope" viewBox="0 0 124 80.5"><path d="M13 2h100c0 6-3 9-7 12a51 51 0 00-8 5L69 45c-5 4-8 4-13 0-5-5-9-10-15-14L18 13c-4-3-6-6-5-11zM18 78c-1-4 1-6 4-8l20-18c4-3 7-2 10 0a26 26 0 015 4c4 3 7 3 11 0l5-4c3-2 6-3 10 0l20 17c3 3 5 5 5 9zM4 12c5 0 9 3 12 7l20 19c2 1 4 4 4 7 0 2-3 4-5 6-6 5-13 9-17 16-4 5-9 7-15 6zM121 72c-6 1-10-1-14-6-5-6-12-11-18-16-5-3-6-8-1-12l16-13a28 28 0 005-6c3-5 7-6 12-6z"/></symbol>
<symbol id="fb" viewBox="0 0 19 40"><path d="M19 13v5l-6 3.13V40H4V20.18L0 20v-7h4.09C3.82 7.62 4.39 3 9 0h10v7c-3.66.08-7.63-.16-5.68 6z"/></symbol>
<symbol id="insta" viewBox="0 0 125 125"><path d="M3 111V14A16.34 16.34 0 0114 3h98l10 10v98a16.4 16.4 0 01-11 11H14c-5.48-1.85-9.26-5.4-11-11zm95.82-57c.89 26-11.56 43.16-32.18 45-9.86.86-18.86-1.26-26.66-7.59-11.92-9.71-15.8-22.47-13.48-37.24h-9.37c0 16.62-.08 32.91.06 49.19 0 3.62 2.86 4.55 6 4.55h78.95c3.91 0 5.83-1.89 5.82-5.81V54zM62.55 85A22.57 22.57 0 1040 62.47 22.48 22.48 0 0062.55 85zm34.11-67.93c-11 0-11 0-11 10.85 0 11.38 0 11.38 11.46 11.38 10.9 0 10.9 0 10.9-11S108 17.07 96.66 17.07z"/></symbol>
<symbol id="location" viewBox="0 0 119 172.6"><path d="M66 167h-9l-3-9c-9-11-19-22-27-34-6-9-10-19-15-29-1-4-3-7-8-6V40c4 2 6 0 8-4 4-10 12-17 22-22 3-2 5-4 4-8h46c-1 4 1 6 5 8a41 41 0 0117 15c2 3 5 5 9 5v66c-4-2-6 0-7 3a62 62 0 01-11 20l-30 38-1 6zM35 62c0 8 0 9 7 17 12 13 30 13 40-2 6-8 7-17 2-26-5-8-12-14-22-14-10-1-15 5-21 11-4 4-7 9-6 14z"/></symbol>
<symbol id="phone" viewBox="0 0 118 197.1"><path d="M54 192H3V5h102c0 7 4 13 10 13v163c-6 0-8 3-9 11H56l4-10c2-4 2-7-2-10a8 8 0 00-6-1c-4 2-4 7-3 11l5 10zM11 96v56c0 8 3 12 10 12h67c8 0 12-5 12-13l-1-18 1-92c0-10-6-16-15-15a265 265 0 01-61 0c-6-1-9 1-12 7a26 26 0 00-1 9v54z"/></symbol>
<symbol id="star" viewBox="0 0 109.3 109.8"><path d="M86.9 106.6c-10-4.8-18.9-9-27.5-13.5-3.1-1.6-5.7-1.7-8.8 0-7.4 3.8-14.9 7.4-22.3 11l-5.3 2.2c1-8.4 1.8-16 2.8-23.4.4-3.5 1.3-7 1.1-10.4a10.8 10.8 0 00-2.7-6c-6.7-7.8-13.6-15.4-21-23.8 9.6-2 18.4-4 27.3-5.5 5.2-.8 8.5-2.9 10.8-7.9 4-8.5 8.7-16.7 13.6-26.2 4.3 8.2 8.7 15.1 11.7 22.6 3.2 8.2 8.8 11.4 17 12.4 7.4 1 14.7 2.8 22.6 4.4a36.7 36.7 0 01-2.3 3.3c-6 6.8-12 13.7-18.3 20.5a9.3 9.3 0 00-2.5 8.5c1.5 10.1 2.5 20.3 3.8 31.8z"/></symbol>
<symbol id="vk" viewBox="0 0 130 78"><path d="M50 3h18c7.78 2.88 8.29 3.93 7.52 12.57A112.33 112.33 0 0075.06 30c.09 2.41 1.28 4.78 2.33 8.42 3-3.22 5.54-5.06 6.94-7.53 3.85-6.76 7.36-13.72 10.72-20.73 1.42-3 3.25-4.22 6.54-4.11 6 .2 12-.08 18 .15 1.84.07 3.64 1.16 5.46 1.79v5l-16.59 23.92c-3.71 5.36-3.26 8.25 1.13 13.08 5.31 5.85 10.29 12 15.41 18v7H99c-4.61-4.23-9.12-8.58-13.88-12.63-1.82-1.54-4.22-2.36-6.36-3.57-.92 2.13-2.58 4.24-2.61 6.37-.06 4.35-1.08 7.78-5.15 9.84H58c-5-2.12-10.66-3.32-14.73-6.56-6-4.79-11.94-10.35-16-16.78C19.16 38.87 12.35 25.27 5 12V7c6-.3 11.93-.42 17.87-1 4.82-.45 7.08 1.86 9.06 6 3.76 7.77 8 15.31 12.37 22.78.76 1.31 2.88 1.83 4.37 2.72.79-1.55 2.11-3 2.28-4.67.38-3.8.11-7.66.3-11.49.3-5.89-.69-11.06-8-13.82z"/></symbol>
<symbol id="youtube" viewBox="0 0 121 146.42"><path d="M1 129.21v-49a7.22 7.22 0 001-2c1-7.95 6.16-13.47 14.22-13.92q23.33-1.29 46.7-1.71c11.79-.18 23.6.3 35.39.7a38.35 38.35 0 019.7 1.53c7 2.13 9.84 8 12 14.4v49c-1.8 9-7 14.81-16 17H17c-8.6-2.06-13.71-7.62-16-16zm61-52.8v49.3c0 5.49 2.71 7.15 7.87 5a5.06 5.06 0 013.24-.29c6.18 2.07 10.65-.68 10.84-7.24.23-8 .36-16 0-24-.41-8.41-5.66-11.41-11.71-8.07-.37.2-1 0-2.06 0v-14.7zm35 35.8c3.88 0 7-.1 10.18 0 2.77.11 4.07-1 3.81-3.8-.32-3.46-.59-6.93-1-10.39-.61-5.67-4.56-9-10.48-8.84-5.31.12-10.34 4.26-10.49 9.25-.24 8.15-.22 16.3 0 24.45.13 4.86 5.63 9.45 10.53 9.29 5.85-.2 10-3.81 10.41-9.19.19-2.21.3-4.44.45-6.71H102c0 1.58.31 3-.08 4.14a17.51 17.51 0 01-2.28 3.7c-.88-1.16-2.31-2.23-2.5-3.49-.41-2.54-.14-5.21-.14-8.41zM35 90.45c0 12.18-.16 24.14.09 36.08.09 4.22 3.83 5.89 8.06 4.09 1.49-.63 2.88-1.51 4-2.12 2.3 4.12 5.49 2.59 8.58 2.25V90.52H48v27.22c0 3.2-.82 5.48-5.23 5.21v-32.5zm-8-5.67c2.66 0 4.91.65 6.18-.18s2.36-3.13 2.64-4.92c.15-1-1.43-3.27-2.28-3.29-7.76-.26-15.53-.16-23.29-.16v8.18l7.77.84v5.2c0 12.16.08 24.32-.06 36.48 0 3.19.86 4.72 4.22 4.3 1.44-.18 2.9-.14 4.82-.23zM51 1.21c-2 7.18-3.67 14.49-6.12 21.52-2.92 8.38-3.18 16.93-3 25.6v6.36H34c-.17-.48-.52-1-.47-1.41C35.59 35 28.79 18.27 24 1.21h8q2.7 10.09 5.39 20.2h.94L43 1.21zM85.74 47.89c4.48.06 5.6-2 5.58-5.33-.06-8.79 0-17.58 0-26.75h7.18v39.7l-8.36-2 .29-1a42.17 42.17 0 01-5.24 2.74c-3.47 1.28-6.71-.46-6.79-4.13-.24-11.76-.09-23.52-.09-35.54h7.45zM71.86 35.18c0 4 .16 8 0 12-.29 5.46-4.2 8.85-9.94 9-6 .11-10.49-3.26-10.68-8.73-.28-8.13-.26-16.28 0-24.41.15-5.34 4.2-8.52 10.19-8.65 5.67-.12 9.89 3.27 10.49 8.43v12.36zm-7.19.21c0-3.32.34-6.7-.15-9.95-.23-1.52-2.08-2.79-3.19-4.17-1 1.31-2.81 2.59-2.87 3.95q-.44 10 0 20c.06 1.35 1.87 2.63 2.88 3.94 1.1-1.41 2.9-2.71 3.15-4.26.51-3.13.18-6.34.18-9.51z"/><path d="M75.25 111.19c0 3.16.16 6.34-.08 9.48-.08 1.06-1.14 2-1.75 3.07-.86-.84-2.44-1.66-2.46-2.53-.21-7.14-.19-14.3 0-21.45 0-.78 1.32-1.54 2-2.31.72.76 2 1.48 2.06 2.28.22 3.81.1 7.64.1 11.46z"/></symbol>
</svg>