<svg xmlns="http://www.w3.org/2000/svg" viewBox="0 0 125 125"><path d="M3 111V14A16.34 16.34 0 0 1 14 3h98l10 10v98a16.4 16.4 0 0 1-11 11H14c-5.48-1.85-9.26-5.4-11-11zm95.82-57c.89 26-11.56 43.16-32.18 45-9.86.86-18.86-1.26-26.66-7.59-11.92-9.71-15.8-22.47-13.48-37.24h-9.37c0 16.62-.08 32.91.06 49.19 0 3.62 2.86 4.55 6 4.55h78.95c3.91 0 5.83-1.89 5.82-5.81V54zM62.55 85A22.57 22.57 0 1 0 40 62.47 22.48 22.48 0 0 0 62.55 85zm34.11-67.93c-11 0-11 0-11 10.85 0 11.38 0 11.38 11.46 11.38 10.9 0 10.9 0 10.9-11S108 17.07 96.66 17.07z"/></svg>