<svg xmlns="http://www.w3.org/2000/svg" viewBox="0 0 109.3 109.8"><path d="M86.9 106.6c-10-4.8-18.9-9-27.5-13.5-3.1-1.6-5.7-1.7-8.8 0-7.4 3.8-14.9 7.4-22.3 11l-5.3 2.2c1-8.4 1.8-16 2.8-23.4.4-3.5 1.3-7 1.1-10.4a10.8 10.8 0 0 0-2.7-6c-6.7-7.8-13.6-15.4-21-23.8 9.6-2 18.4-4 27.3-5.5 5.2-.8 8.5-2.9 10.8-7.9 4-8.5 8.7-16.7 13.6-26.2 4.3 8.2 8.7 15.1 11.7 22.6 3.2 8.2 8.8 11.4 17 12.4 7.4 1 14.7 2.8 22.6 4.4a36.7 36.7 0 0 1-2.3 3.3c-6 6.8-12 13.7-18.3 20.5a9.3 9.3 0 0 0-2.5 8.5c1.5 10.1 2.5 20.3 3.8 31.8z"/></svg>