<svg xmlns="http://www.w3.org/2000/svg" viewBox="0 0 130 78"><path d="M50 3h18c7.78 2.88 8.29 3.93 7.52 12.57A112.33 112.33 0 0 0 75.06 30c.09 2.41 1.28 4.78 2.33 8.42 3-3.22 5.54-5.06 6.94-7.53 3.85-6.76 7.36-13.72 10.72-20.73 1.42-3 3.25-4.22 6.54-4.11 6 .2 12-.08 18 .15 1.84.07 3.64 1.16 5.46 1.79v5l-16.59 23.92c-3.71 5.36-3.26 8.25 1.13 13.08 5.31 5.85 10.29 12 15.41 18v7H99c-4.61-4.23-9.12-8.58-13.88-12.63-1.82-1.54-4.22-2.36-6.36-3.57-.92 2.13-2.58 4.24-2.61 6.37-.06 4.35-1.08 7.78-5.15 9.84H58c-5-2.12-10.66-3.32-14.73-6.56-6-4.79-11.94-10.35-16-16.78C19.16 38.87 12.35 25.27 5 12V7c6-.3 11.93-.42 17.87-1 4.82-.45 7.08 1.86 9.06 6 3.76 7.77 8 15.31 12.37 22.78.76 1.31 2.88 1.83 4.37 2.72.79-1.55 2.11-3 2.28-4.67.38-3.8.11-7.66.3-11.49.3-5.89-.69-11.06-8-13.82z"/></svg>