<svg xmlns="http://www.w3.org/2000/svg" viewBox="0 0 121 146.42"><path d="M1 129.21v-49a7.22 7.22 0 0 0 1-2c1-7.95 6.16-13.47 14.22-13.92q23.33-1.29 46.7-1.71c11.79-.18 23.6.3 35.39.7a38.35 38.35 0 0 1 9.7 1.53c7 2.13 9.84 8 12 14.4v49c-1.8 9-7 14.81-16 17H17c-8.6-2.06-13.71-7.62-16-16zm61-52.8v49.3c0 5.49 2.71 7.15 7.87 5a5.06 5.06 0 0 1 3.24-.29c6.18 2.07 10.65-.68 10.84-7.24.23-8 .36-16 0-24-.41-8.41-5.66-11.41-11.71-8.07-.37.2-1 0-2.06 0v-14.7zm35 35.8c3.88 0 7-.1 10.18 0 2.77.11 4.07-1 3.81-3.8-.32-3.46-.59-6.93-1-10.39-.61-5.67-4.56-9-10.48-8.84-5.31.12-10.34 4.26-10.49 9.25-.24 8.15-.22 16.3 0 24.45.13 4.86 5.63 9.45 10.53 9.29 5.85-.2 10-3.81 10.41-9.19.19-2.21.3-4.44.45-6.71H102c0 1.58.31 3-.08 4.14a17.51 17.51 0 0 1-2.28 3.7c-.88-1.16-2.31-2.23-2.5-3.49-.41-2.54-.14-5.21-.14-8.41zM35 90.45c0 12.18-.16 24.14.09 36.08.09 4.22 3.83 5.89 8.06 4.09 1.49-.63 2.88-1.51 4-2.12 2.3 4.12 5.49 2.59 8.58 2.25V90.52H48v27.22c0 3.2-.82 5.48-5.23 5.21v-32.5zm-8-5.67c2.66 0 4.91.65 6.18-.18s2.36-3.13 2.64-4.92c.15-1-1.43-3.27-2.28-3.29-7.76-.26-15.53-.16-23.29-.16v8.18l7.77.84v5.2c0 12.16.08 24.32-.06 36.48 0 3.19.86 4.72 4.22 4.3 1.44-.18 2.9-.14 4.82-.23zM51 1.21c-2 7.18-3.67 14.49-6.12 21.52-2.92 8.38-3.18 16.93-3 25.6v6.36H34c-.17-.48-.52-1-.47-1.41C35.59 35 28.79 18.27 24 1.21h8q2.7 10.09 5.39 20.2h.94L43 1.21zm34.74 46.68c4.48.06 5.6-2 5.58-5.33-.06-8.79 0-17.58 0-26.75h7.18v39.7l-8.36-2 .29-1a42.17 42.17 0 0 1-5.24 2.74c-3.47 1.28-6.71-.46-6.79-4.13-.24-11.76-.09-23.52-.09-35.54h7.45zM71.86 35.18c0 4 .16 8 0 12-.29 5.46-4.2 8.85-9.94 9-6 .11-10.49-3.26-10.68-8.73-.28-8.13-.26-16.28 0-24.41.15-5.34 4.2-8.52 10.19-8.65 5.67-.12 9.89 3.27 10.49 8.43v12.36zm-7.19.21c0-3.32.34-6.7-.15-9.95-.23-1.52-2.08-2.79-3.19-4.17-1 1.31-2.81 2.59-2.87 3.95q-.44 10 0 20c.06 1.35 1.87 2.63 2.88 3.94 1.1-1.41 2.9-2.71 3.15-4.26.51-3.13.18-6.34.18-9.51z"/><path d="M75.25 111.19c0 3.16.16 6.34-.08 9.48-.08 1.06-1.14 2-1.75 3.07-.86-.84-2.44-1.66-2.46-2.53-.21-7.14-.19-14.3 0-21.45 0-.78 1.32-1.54 2-2.31.72.76 2 1.48 2.06 2.28.22 3.81.1 7.64.1 11.46z"/></svg>